<?xml version="1.0" standalone="no"?>
<!DOCTYPE svg PUBLIC "-//W3C//DTD SVG 20010904//EN"
 "http://www.w3.org/TR/2001/REC-SVG-20010904/DTD/svg10.dtd">
<svg version="1.0" xmlns="http://www.w3.org/2000/svg"
 width="300.000000pt" height="300.000000pt" viewBox="0 0 300.000000 300.000000"
 preserveAspectRatio="xMidYMid meet">
<metadata>
Created by potrace 1.14, written by Peter Selinger 2001-2017
</metadata>
<g transform="translate(0.000000,300.000000) scale(0.100000,-0.100000)"
fill="#000000" stroke="none">
<path d="M0 1500 l0 -1500 1500 0 1500 0 0 1500 0 1500 -1500 0 -1500 0 0
-1500z m2434 778 c9 -12 16 -34 16 -49 0 -37 51 -79 136 -113 81 -33 97 -44
89 -64 -3 -8 -14 -55 -25 -105 -25 -116 -38 -131 -107 -124 -29 3 -53 3 -53 0
0 -3 8 -17 19 -31 24 -34 51 -114 51 -150 0 -41 -12 -102 -20 -102 -3 0 -11
17 -17 38 l-10 37 -2 -48 c-2 -69 -18 -131 -61 -222 -31 -67 -49 -91 -109
-145 -85 -76 -107 -114 -121 -208 -13 -81 1 -129 45 -158 36 -24 56 -66 49
-103 -6 -30 -8 -31 -64 -31 -52 0 -58 -2 -53 -19 3 -10 0 -28 -6 -40 -11 -19
-20 -21 -113 -21 l-101 0 -44 48 -45 47 6 110 c6 112 4 126 -33 225 -17 47
-23 55 -43 52 -13 -2 -75 -4 -138 -5 -97 -1 -124 3 -170 21 -66 27 -67 27 -74
4 -11 -33 -89 -102 -150 -132 -35 -17 -94 -35 -139 -42 l-79 -12 6 -30 c4 -18
24 -47 51 -72 39 -36 45 -46 45 -82 0 -40 -1 -42 -30 -42 -33 0 -35 -3 -20
-29 6 -13 5 -24 -6 -39 -14 -20 -24 -22 -118 -22 l-102 0 -33 80 c-18 43 -39
85 -47 91 -19 15 -18 74 3 192 16 96 18 99 52 118 65 34 67 37 79 149 6 57 10
106 8 107 -1 2 -26 -26 -55 -62 -71 -88 -204 -210 -255 -234 -63 -31 -116 -35
-179 -17 -149 43 -191 167 -100 299 28 40 68 67 100 67 22 0 93 -46 93 -60 0
-6 -12 -10 -26 -10 -14 0 -23 -4 -20 -8 6 -10 106 -8 151 3 21 5 26 4 16 -3
-11 -8 -9 -11 10 -14 15 -3 2 -7 -34 -12 -37 -6 -67 -5 -82 2 -16 7 -26 7 -34
-1 -8 -8 -24 -6 -61 7 -27 10 -54 14 -61 11 -6 -4 -20 -27 -31 -51 -35 -81 4
-160 91 -184 116 -31 255 66 400 278 21 31 70 87 109 124 73 69 140 103 228
115 38 5 42 8 33 24 -5 11 -17 19 -27 19 -34 1 -102 39 -114 65 -6 14 -17 25
-25 25 -24 0 -71 29 -77 48 -4 12 -25 22 -67 31 -59 13 -119 45 -126 67 -2 6
10 17 27 24 39 16 33 20 -60 49 -157 49 -226 99 -260 189 -19 51 -19 52 -1 52
16 0 163 -39 209 -55 8 -3 -5 16 -27 41 -43 49 -55 90 -23 80 84 -26 352 -89
448 -106 65 -12 196 -25 289 -30 210 -10 302 -36 442 -126 30 -19 56 -34 57
-32 1 2 7 15 14 31 11 25 10 27 -14 27 -28 0 -74 21 -92 43 -10 12 -8 16 14
21 14 4 65 44 113 89 114 108 134 118 269 120 59 1 119 -2 135 -7 22 -7 27 -5
27 8 0 13 4 15 19 6 11 -5 27 -20 35 -32z"/>
<path d="M2318 2259 c17 -12 32 -22 32 -23 0 -2 -26 4 -59 13 -54 14 -62 14
-107 -4 -27 -10 -64 -34 -83 -54 -29 -30 -34 -32 -29 -13 10 36 1 26 -33 -39
-18 -33 -45 -71 -61 -84 -25 -21 -28 -30 -28 -88 0 -72 19 -145 53 -200 l23
-38 -4 59 c-3 37 0 62 7 66 7 5 11 -4 11 -24 0 -37 19 -77 53 -109 l26 -23
-26 73 c-17 49 -23 84 -19 108 7 44 26 65 26 28 0 -42 29 -117 72 -186 45 -72
68 -130 68 -173 l0 -29 30 16 c17 9 30 20 30 25 0 6 5 10 11 10 6 0 8 -7 5
-16 -6 -15 -4 -15 10 -3 10 8 30 32 46 53 32 45 37 33 8 -23 -40 -79 -127
-131 -219 -131 l-42 0 23 32 c30 43 29 95 -2 141 l-25 37 -5 -32 -5 -32 -37
49 c-21 28 -56 73 -78 100 -22 28 -47 70 -57 95 -30 82 -105 140 -226 175 -68
20 -161 22 -392 11 -118 -6 -193 -5 -245 3 -41 7 -109 16 -151 21 -67 9 -268
55 -324 75 -34 12 35 -41 95 -74 99 -53 249 -89 464 -111 55 -6 101 -12 103
-14 5 -5 -95 -16 -236 -26 -235 -17 -157 -45 122 -43 92 0 166 -1 165 -2 -7
-7 -182 -45 -204 -45 -13 0 -24 -4 -24 -9 0 -14 55 -21 169 -21 121 0 120 -9
-6 -36 -46 -9 -81 -19 -79 -21 12 -13 135 -21 213 -15 50 4 90 5 87 1 -2 -4
-37 -17 -79 -30 -41 -13 -75 -27 -75 -31 0 -13 86 -19 240 -16 140 3 159 1
200 -18 61 -28 73 -45 77 -112 l4 -57 -24 45 c-16 30 -38 53 -68 70 -43 24
-49 25 -214 22 -93 -1 -184 2 -201 7 -25 7 -48 4 -105 -16 -101 -34 -131 -54
-162 -111 -31 -57 -77 -220 -77 -273 0 -44 -26 -80 -79 -110 l-39 -21 -17
-107 -17 -107 43 -92 44 -91 54 -1 54 0 -19 23 c-10 12 -23 25 -29 29 -6 4 -2
8 8 8 11 0 32 -13 47 -30 29 -31 60 -40 60 -17 0 20 -30 44 -63 53 -37 9 -67
57 -67 107 0 52 39 124 97 178 72 67 110 85 56 26 -24 -26 -43 -49 -43 -52 0
-11 125 8 175 26 77 28 119 70 164 160 22 44 43 95 47 115 3 19 10 36 14 39
14 9 20 -57 9 -97 -13 -50 -5 -60 67 -83 42 -13 80 -16 164 -13 60 2 111 5
113 8 3 3 0 29 -6 58 -16 75 2 173 40 221 34 42 104 81 148 81 30 0 29 0 -13
-21 -54 -27 -109 -91 -123 -143 -18 -67 4 -237 43 -330 17 -41 19 -67 17 -160
-3 -109 -3 -112 25 -149 25 -33 33 -37 73 -37 l45 0 -16 25 c-14 22 -14 25 -1
25 8 0 22 -11 31 -25 12 -19 25 -25 50 -25 50 0 44 27 -11 51 -24 11 -56 35
-71 54 l-26 35 31 74 c47 114 62 181 55 252 -5 46 -3 68 9 90 16 29 16 29 19
-41 4 -120 0 -157 -32 -249 -32 -95 -36 -126 -20 -156 10 -19 59 -40 93 -40
16 0 17 2 7 15 -20 24 -4 29 19 6 12 -12 32 -21 46 -21 39 0 31 33 -19 74 -35
29 -46 46 -56 87 -29 122 11 223 130 323 68 57 82 75 94 116 16 52 8 115 -20
157 -27 42 -14 38 25 -7 l39 -45 8 30 c4 17 8 74 8 127 1 54 3 98 5 98 3 0 16
-10 29 -22 l24 -23 -7 35 c-9 46 -49 124 -91 179 -19 24 -34 48 -34 52 0 5 22
-5 48 -22 29 -18 68 -32 100 -36 l52 -6 16 38 c8 20 14 39 12 41 -2 2 -21 -1
-41 -7 -26 -7 -49 -6 -79 2 -39 11 -41 13 -18 18 17 5 21 9 12 15 -16 9 -15
37 1 59 11 16 12 14 12 -15 0 -41 37 -62 90 -52 33 6 36 9 33 38 -2 25 -11 35
-48 54 l-45 24 43 -5 c62 -8 53 14 -18 41 -63 25 -143 90 -139 113 2 8 0 27
-5 44 -7 27 -9 28 -20 12 -12 -16 -16 -16 -49 -2 -52 21 -68 18 -29 -6z m118
-134 c7 -27 -5 -69 -13 -47 -3 6 -13 12 -24 12 -11 0 -22 7 -25 15 -4 9 -19
15 -38 15 -27 1 -28 2 -13 11 10 6 36 9 57 7 21 -2 36 0 34 4 -3 5 -1 8 5 8 6
0 13 -11 17 -25z"/>
<path d="M1979 2165 c-34 -41 -66 -75 -71 -75 -5 0 -6 -4 -3 -10 5 -9 75 -15
75 -7 0 1 15 40 34 85 19 45 33 82 31 82 -2 0 -32 -34 -66 -75z"/>
<path d="M830 2166 c0 -4 28 -20 63 -36 81 -38 213 -60 346 -59 58 1 93 4 76
6 -163 20 -415 68 -467 88 -10 4 -18 4 -18 1z"/>
<path d="M1012 905 c-44 -55 -25 -133 38 -158 35 -13 41 -14 36 -2 -7 20 8 19
24 0 11 -13 15 -13 21 -3 14 21 11 27 -35 76 -24 26 -48 62 -53 81 l-9 34 -22
-28z"/>
</g>
</svg>
